<svg data-v-423bf9ae="" xmlns="http://www.w3.org/2000/svg" viewBox="0 0 1332.36456013579 193" class="fontAboveSlogan"><!----><!----><!----><g data-v-423bf9ae="" id="3c965b3b-ad4b-4814-a7e2-02f525ea89c3" fill="black" transform="matrix(13.01518535106492,0,0,13.01518535106492,-3.065920852039085,-29.274471471420213)"><path d="M4.62 2.51L3.71 2.51C3.43 2.51 3.09 2.45 3.09 2.45L0.24 11.37L1.22 11.48C1.22 11.27 1.37 10.01 1.71 8.57L5.35 8.57L6.27 11.48L7.46 11.37ZM3.70 3.43L5.19 8.11L1.82 8.11C1.89 7.81 1.96 7.52 2.06 7.21L3.26 3.43ZM8.64 11.37L9.20 11.42C9.20 11.42 9.31 10.60 9.62 10.60C9.65 10.60 9.70 10.61 9.73 10.63L11.02 11.14C11.52 11.35 11.97 11.49 12.39 11.49C13.75 11.49 14.64 10.14 14.64 8.11C14.64 6.08 13.75 4.72 12.39 4.72C11.97 4.72 11.52 4.87 11.02 5.07L9.80 5.56L9.80 2.51L8.64 2.51ZM9.80 10.26L9.80 5.94L11.24 5.47C11.62 5.35 11.84 5.32 12.05 5.32C12.87 5.32 13.41 6.44 13.41 8.11C13.41 9.93 12.94 10.89 12.05 10.89C11.84 10.89 11.62 10.85 11.24 10.72ZM17.93 4.72C16.58 4.72 15.69 6.08 15.69 8.11C15.69 10.14 16.58 11.48 17.93 11.48C18.35 11.48 18.82 11.34 19.32 11.13L20.59 10.63L20.90 11.42L21.92 11.31C21.88 11.19 21.70 10.39 21.70 9.91L21.70 2.51L20.52 2.51L20.52 5.56L19.32 5.07C18.82 4.87 18.35 4.72 17.93 4.72ZM20.52 10.26L19.10 10.72C18.72 10.85 18.48 10.88 18.27 10.88C17.39 10.88 16.91 9.93 16.91 8.11C16.91 6.44 17.46 5.32 18.27 5.32C18.48 5.32 18.72 5.35 19.10 5.47L20.52 5.94ZM29.33 4.83L28.17 4.83L28.17 10.26L26.43 10.81C26.25 10.86 25.77 10.95 25.62 10.95C24.99 10.95 24.67 10.51 24.67 9.72L24.67 4.83L23.49 4.83L23.49 9.86C23.49 10.84 24.22 11.48 25.30 11.48C25.70 11.48 26.14 11.44 26.71 11.21L28.21 10.63L28.53 11.42L29.33 11.37ZM32.35 2.51L31.19 2.51L31.19 9.04C31.19 9.65 31.30 11.19 31.30 11.42C31.30 11.42 31.95 11.40 32.35 11.37ZM35.38 2.51L34.22 2.51L34.22 9.04C34.22 9.65 34.33 11.19 34.33 11.42C34.33 11.42 34.97 11.40 35.38 11.37ZM39.83 4.72C38.82 4.72 37.70 5.07 37.32 5.25L37.56 5.91L38.47 5.49C38.85 5.31 39.34 5.18 39.83 5.18C40.80 5.18 41.31 5.66 41.31 6.54L41.31 7.76L39.00 7.76C37.63 7.76 36.71 8.55 36.71 9.67C36.71 10.72 37.58 11.48 38.88 11.48C39.09 11.48 39.41 11.41 39.91 11.21L41.36 10.64L41.66 11.42L42.71 11.31C42.67 11.19 42.49 10.39 42.49 9.91L42.49 6.51C42.49 5.33 41.55 4.72 39.83 4.72ZM41.31 8.22L41.31 10.26L39.68 10.79C39.49 10.85 39.24 10.91 39.09 10.91C38.32 10.91 37.90 10.46 37.90 9.73C37.90 8.78 38.43 8.22 39.41 8.22ZM44.30 11.37L45.46 11.37L45.46 5.94L47.18 5.39C47.36 5.33 47.74 5.25 48.01 5.25C48.64 5.25 48.96 5.68 48.96 6.48L48.96 11.37L50.12 11.37L50.12 6.34C50.12 5.36 49.41 4.72 48.33 4.72C47.92 4.72 47.49 4.75 46.91 4.98L45.46 5.57L45.46 2.51L44.30 2.51ZM56.42 5.66L56.45 6.17C56.67 6.17 57.44 6.12 57.74 6.12C57.93 6.65 58.23 7.27 58.23 8.04C58.23 8.26 58.18 8.82 57.93 9.39L54.61 5.94C54.08 5.39 53.75 4.80 53.75 4.34C53.75 3.75 54.26 3.43 55.24 3.43C55.40 3.43 55.66 3.50 55.85 3.56L56.90 3.91L57.12 3.36C56.74 3.18 55.79 2.97 55.13 2.97C53.62 2.97 52.81 3.54 52.81 4.61C52.81 5.36 53.26 6.24 53.98 6.94C53.44 7.22 51.69 7.83 51.69 9.21C51.69 10.58 53.03 11.48 55.05 11.48C56.39 11.48 57.26 11.06 57.82 10.47L58.34 10.96C58.76 11.35 59.30 11.48 60.07 11.48C60.26 11.48 60.45 11.47 60.66 11.45L60.70 10.86C60.56 10.89 60.03 11.00 59.81 11.00C59.50 11.00 59.25 10.78 59.04 10.57L58.30 9.77C58.59 9.18 58.69 8.55 58.69 8.04C58.69 7.42 58.56 6.71 58.37 6.12C59.16 6.12 59.56 6.23 60.23 6.23L60.20 5.66L57.90 5.71ZM57.46 10.14C57.01 10.63 56.31 11.02 55.20 11.02C53.63 11.02 52.82 10.42 52.82 9.28C52.82 8.44 53.40 7.78 54.29 7.22ZM62.09 2.51L61.85 11.37L62.57 11.38C62.57 10.77 62.43 9.04 62.43 7.84L62.43 7.53L62.50 4.73L62.51 4.73L62.72 5.19L65.93 10.81L66.07 10.81C66.12 10.57 66.39 10.02 66.63 9.60L69.15 5.17L69.47 4.59L69.48 4.59L69.66 11.38L70.84 11.37L70.59 2.51L70.11 2.51L66.33 9.16L62.51 2.51ZM73.81 3.14L73.81 2.55C73.81 2.41 73.75 2.27 73.40 2.27L72.94 2.27C72.59 2.27 72.53 2.44 72.53 2.55L72.53 3.14C72.53 3.25 72.59 3.43 72.94 3.43L73.40 3.43C73.75 3.43 73.81 3.28 73.81 3.14ZM72.59 11.37L73.75 11.37L73.75 4.83L72.59 4.83ZM75.14 10.98C75.74 11.20 76.79 11.48 77.83 11.48C80.07 11.48 80.86 10.61 80.86 9.69C80.86 8.51 79.65 7.97 78.50 7.52C77.41 7.10 76.36 6.75 76.36 6.02C76.36 5.47 76.93 5.18 77.97 5.18C78.60 5.18 78.96 5.26 80.16 5.74L80.40 5.10C79.80 4.87 78.89 4.72 77.95 4.72C76.41 4.72 75.38 5.33 75.38 6.34C75.38 7.43 76.52 7.91 77.64 8.36C78.72 8.78 79.74 9.18 79.74 9.97C79.74 10.63 79.09 11.02 77.84 11.02C77.14 11.02 76.47 10.75 75.38 10.32ZM82.26 11.37L82.82 11.42C82.82 11.42 82.94 10.60 83.24 10.60C83.27 10.60 83.33 10.61 83.36 10.63L84.64 11.14C85.15 11.35 85.60 11.49 86.02 11.49C87.37 11.49 88.27 10.14 88.27 8.11C88.27 6.08 87.37 4.72 86.02 4.72C85.60 4.72 85.15 4.87 84.64 5.07L83.43 5.56L83.43 2.51L82.26 2.51ZM83.43 10.26L83.43 5.94L84.87 5.47C85.25 5.35 85.47 5.32 85.68 5.32C86.49 5.32 87.04 6.44 87.04 8.11C87.04 9.93 86.56 10.89 85.68 10.89C85.47 10.89 85.25 10.85 84.87 10.72ZM92.32 4.72C91.31 4.72 90.19 5.07 89.81 5.25L90.05 5.91L90.96 5.49C91.34 5.31 91.83 5.18 92.32 5.18C93.28 5.18 93.80 5.66 93.80 6.54L93.80 7.76L91.49 7.76C90.12 7.76 89.19 8.55 89.19 9.67C89.19 10.72 90.06 11.48 91.36 11.48C91.57 11.48 91.90 11.41 92.40 11.21L93.84 10.64L94.15 11.42L95.20 11.31C95.16 11.19 94.98 10.39 94.98 9.91L94.98 6.51C94.98 5.33 94.04 4.72 92.32 4.72ZM93.80 8.22L93.80 10.26L92.16 10.79C91.98 10.85 91.73 10.91 91.57 10.91C90.80 10.91 90.38 10.46 90.38 9.73C90.38 8.78 90.92 8.22 91.90 8.22ZM96.78 11.37L97.94 11.37L97.94 5.94L99.67 5.39C99.85 5.33 100.23 5.25 100.49 5.25C101.12 5.25 101.44 5.68 101.44 6.48L101.44 11.37L102.61 11.37L102.61 6.34C102.61 5.36 101.89 4.72 100.81 4.72C100.41 4.72 99.97 4.75 99.40 4.98L97.94 5.57L97.94 2.51L96.78 2.51Z"></path></g><!----><!----><g data-v-423bf9ae="" id="cf0384b7-823e-4a7d-8867-fb9a8d2ed12c" fill="black" transform="matrix(4.464285536890945,0,0,4.464285536890945,509.2626584920848,117.06250784546134)"><path d="M4.38 13.96C6.03 13.96 7.49 12.53 7.49 10.09C7.49 7.88 6.52 6.47 4.65 6.47C3.81 6.47 2.88 6.94 2.20 7.67L2.23 6.17L2.23 3.57L1.41 3.57L1.41 13.78L2.09 13.78L2.16 12.98L2.18 12.98C2.86 13.57 3.72 13.96 4.38 13.96ZM4.31 13.26C3.77 13.26 2.95 12.96 2.23 12.25L2.23 8.41C3.02 7.57 3.84 7.17 4.49 7.17C6.03 7.17 6.65 8.40 6.65 10.11C6.65 11.98 5.66 13.26 4.31 13.26ZM21.14 13.96C21.84 13.96 22.30 13.75 22.88 13.51L22.65 12.88C22.12 13.15 21.71 13.27 21.29 13.27C20.38 13.27 19.88 12.75 19.88 11.63L19.88 3.57L16.63 3.57L16.63 4.26L19.07 4.26L19.07 11.56C19.07 13.19 19.81 13.96 21.14 13.96ZM35 13.96C36.78 13.96 38.29 12.59 38.29 10.22C38.29 7.83 36.78 6.47 35 6.47C33.22 6.47 31.71 7.83 31.71 10.22C31.71 12.59 33.22 13.96 35 13.96ZM35 13.27C33.57 13.27 32.55 12.04 32.55 10.22C32.55 8.40 33.57 7.15 35 7.15C36.43 7.15 37.45 8.40 37.45 10.22C37.45 12.04 36.43 13.27 35 13.27ZM50.18 17.01C52.05 17.01 53.19 15.90 53.19 13.78L53.19 6.64L52.53 6.64L52.44 7.45L52.42 7.45C51.79 6.86 51.07 6.47 50.26 6.47C48.58 6.47 47.11 7.87 47.11 10.12C47.11 12.45 48.30 13.75 50.05 13.75C50.96 13.75 51.84 13.20 52.40 12.57L52.39 13.69C52.37 15.78 51.58 16.34 50.18 16.34C49.45 16.34 48.65 16.13 47.94 15.09L47.43 15.53C48.34 16.72 49.25 17.01 50.18 17.01ZM50.20 13.06C48.79 13.06 47.95 11.89 47.95 10.11C47.95 8.43 49.03 7.17 50.34 7.17C51.02 7.17 51.67 7.45 52.39 8.16L52.39 11.83C51.67 12.61 50.93 13.06 50.20 13.06ZM66.01 13.96C67.86 13.96 68.89 13.01 68.89 11.89C68.89 10.88 68.12 10.30 66.12 9.77C64.79 9.42 63.94 9.02 63.94 8.37C63.94 7.73 64.37 7.13 65.80 7.13C66.68 7.13 67.42 7.45 68.01 7.91L68.45 7.34C67.79 6.86 66.75 6.47 65.81 6.47C63.98 6.47 63.08 7.35 63.08 8.41C63.08 9.35 64.25 10.02 65.72 10.40C67.59 10.88 68.05 11.34 68.05 11.94C68.05 12.68 67.38 13.29 66.05 13.29C64.72 13.29 63.87 12.89 63.13 12.28L62.71 12.84C63.52 13.44 64.65 13.96 66.01 13.96Z"></path></g></svg>